<svg
  xmlns="http://www.w3.org/2000/svg"
  viewBox="0 0 850 256"
  width="850"
  height="256"
>
  <g transform="matrix(0.8, 0, 0, 0.8, 25.6, 25.6)">
      <circle cx="128" cy="128" r="120" fill="#F7931E"/>
 
      <g fill="#333333" transform="translate(164 78) skewX(7)">
        <rect x="0"  y="0"  width="15" height="15"/>
        <rect x="19" y="0"  width="15" height="15"/>
        <rect x="38" y="0"  width="15" height="15"/>
 
        <rect x="0"  y="19" width="15" height="15"/>
        <rect x="19" y="19" width="15" height="15"/>
        <rect x="38" y="19" width="15" height="15"/>
 
        <rect x="0"  y="38" width="15" height="15"/>
        <rect x="19" y="38" width="15" height="15"/>
        <rect x="38" y="38" width="15" height="15"/>
      </g>
 
      <path
        d="M 78 78 A 72 72 0 1 0 192 150"
        fill="none"
        stroke="#333333"
        stroke-width="22"
        stroke-linecap="round"
        transform="translate(5)"
      />
 
      <rect
        x="117"
        y="48"
        width="22"
        height="75"
        rx="11"
        fill="#333333"
      />
  </g>
 
  <text
    x="250"
    y="165"
    fill="#333333"
    font-family="Arial, Helvetica, sans-serif"
    font-weight="bold"
    font-size="100"
    textLength="560"
    lengthAdjust="spacingAndGlyphs"
  >WattWorks.</text>
 
  <text
    x="250"
    y="200"
    fill="#333333"
    font-family="Arial, Helvetica, sans-serif"
    font-size="28"
    textLength="560"
    lengthAdjust="spacing"
  >Sicher. Geprüft. Vernetzt.</text>
 
</svg>